<svg width="47" height="43" viewBox="0 0 47 43" fill="none" xmlns="http://www.w3.org/2000/svg">
<rect x="1" y="0.5" width="45" height="42" rx="11.5" fill="white"/>
<rect x="1" y="0.5" width="45" height="42" rx="11.5" stroke="black"/>
<g clip-path="url(#clip0_2024_352)">
<path d="M20.1014 12.7553L15.3498 18.1771H12.9379C12.6962 18.1771 12.5 18.3851 12.5 18.6418V24.3589C12.5 24.6156 12.6959 24.8239 12.9379 24.8239H15.3498L20.1014 30.2457C20.3724 30.5547 20.8599 30.3512 20.8599 29.9291V13.0719C20.8599 12.6496 20.3724 12.4463 20.1014 12.7553Z" fill="black"/>
<path d="M22.8535 18.6695C22.4658 19.0811 22.4658 19.7483 22.8535 20.1596C23.55 20.8991 23.55 22.1024 22.8535 22.8419C22.4658 23.2535 22.4661 23.9207 22.8535 24.332C23.0472 24.5376 23.3013 24.6404 23.5552 24.6404C23.8091 24.6404 24.0633 24.5376 24.2572 24.3317C25.7275 22.7707 25.7275 20.2303 24.2572 18.6693C23.8695 18.2577 23.2411 18.2577 22.8535 18.6693V18.6695Z" fill="black"/>
<path d="M27.4877 15.2393C27.1 14.8278 26.4716 14.8278 26.0842 15.2393C25.6965 15.6509 25.6965 16.3181 26.0842 16.7294C27.2846 18.0038 27.9457 19.6981 27.9457 21.5006C27.9457 23.303 27.2846 24.9974 26.0842 26.2718C25.6965 26.6833 25.6965 27.3505 26.0842 27.7621C26.2779 27.9677 26.532 28.0706 26.7859 28.0706C27.0398 28.0706 27.294 27.9677 27.4877 27.7621C29.063 26.0895 29.9305 23.8658 29.9305 21.5006C29.9305 19.1354 29.063 16.9116 27.4877 15.2393Z" fill="black"/>
<path d="M30.7184 11.8094C30.3307 11.3978 29.7023 11.3978 29.3149 11.8094C28.9273 12.221 28.9273 12.8881 29.3149 13.2994C33.5744 17.8216 33.5744 25.1797 29.3149 29.7019C28.9273 30.1135 28.9273 30.7806 29.3149 31.1922C29.5086 31.3978 29.7628 31.5007 30.0166 31.5007C30.2705 31.5007 30.5247 31.3978 30.7184 31.1922C33.1567 28.6034 34.4995 25.1616 34.4995 21.5007C34.4995 17.8398 33.1565 14.3982 30.7184 11.8094Z" fill="black"/>
</g>
<defs>
<clipPath id="clip0_2024_352">
<rect width="22" height="20" fill="white" transform="translate(12.5 11.5)"/>
</clipPath>
</defs>
</svg>
