<svg width="120" height="121" viewBox="0 0 120 121" fill="none" xmlns="http://www.w3.org/2000/svg">
<g style="mix-blend-mode:plus-lighter" opacity="0.5">
<circle cx="60.059" cy="60.0587" r="57.7037" fill="#BBE4FF" fill-opacity="0.4"/>
<path d="M120 76.4275H114.583V81.8446H120V76.4275Z" fill="#FFCCE4"/>
<path d="M120 71.01H114.583V76.4271H120V71.01Z" fill="#FFCCE4"/>
<path d="M120 65.4761H114.583V70.8931H120V65.4761Z" fill="#FFCCE4"/>
<path d="M120 60.0588H114.583V65.4759H120V60.0588Z" fill="#FFCCE4"/>
<path d="M120 54.6414H114.583V60.0585H120V54.6414Z" fill="#FFCCE4"/>
<path d="M120 49.1069H114.583V54.524H120V49.1069Z" fill="#FFCCE4"/>
<path d="M120 43.6899H114.583V49.107H120V43.6899Z" fill="#FFCCE4"/>
<path d="M120 38.1545H114.583V43.5716H120V38.1545Z" fill="#FFCCE4"/>
<path d="M114.583 87.3804H109.166V92.7975H114.583V87.3804Z" fill="#FFCCE4"/>
<path d="M114.583 81.845H109.166V87.2621H114.583V81.845Z" fill="#FFCCE4"/>
<path d="M114.583 32.7378H109.166V38.1549H114.583V32.7378Z" fill="#F1F4CE"/>
<path d="M114.583 27.3208H109.166V32.7379H114.583V27.3208Z" fill="#F1F4CE"/>
<path d="M109.048 92.7966H103.631V98.2137H109.048V92.7966Z" fill="#FFCCE4"/>
<path d="M109.048 21.7859H103.631V27.203H109.048V21.7859Z" fill="#F1F4CE"/>
<path d="M103.631 98.2139H98.214V103.631H103.631V98.2139Z" fill="#FFCCE4"/>
<path d="M103.631 16.3684H98.214V21.7855H103.631V16.3684Z" fill="#F1F4CE"/>
<path d="M98.214 103.748H92.7969V109.165H98.214V103.748Z" fill="#FFCCE4"/>
<path d="M98.214 10.9512H92.7969V16.3683H98.214V10.9512Z" fill="#F1F4CE"/>
<path d="M92.6793 103.748H87.2622V109.165H92.6793V103.748Z" fill="#FFCCE4"/>
<path d="M92.6793 81.845H87.2622V87.2621H92.6793V81.845Z" fill="#BBE4FF"/>
<path d="M92.6793 10.9512H87.2622V16.3683H92.6793V10.9512Z" fill="#F1F4CE"/>
<path d="M87.2623 109.166H81.8452V114.583H87.2623V109.166Z" fill="#FFCCE4"/>
<path d="M87.2623 81.845H81.8452V87.2621H87.2623V81.845Z" fill="#BBE4FF"/>
<path d="M87.2623 5.4165H81.8452V10.8336H87.2623V5.4165Z" fill="#F1F4CE"/>
<path d="M81.8451 109.166H76.428V114.583H81.8451V109.166Z" fill="#FFCCE4"/>
<path d="M81.8451 87.3804H76.428V92.7975H81.8451V87.3804Z" fill="#F1F4CE"/>
<path d="M81.8451 5.4165H76.428V10.8336H81.8451V5.4165Z" fill="#F1F4CE"/>
<path d="M76.3099 109.166H70.8928V114.583H76.3099V109.166Z" fill="#FFCCE4"/>
<path d="M76.3099 87.3804H70.8928V92.7975H76.3099V87.3804Z" fill="#F1F4CE"/>
<path d="M76.3099 5.4165H70.8928V10.8336H76.3099V5.4165Z" fill="#F1F4CE"/>
<path d="M70.8933 114.701H65.4762V120.118H70.8933V114.701Z" fill="#FFCCE4"/>
<path d="M70.8933 92.7966H65.4762V98.2137H70.8933V92.7966Z" fill="#FFCCE4"/>
<path d="M70.8933 -0.000244141H65.4762V5.41685H70.8933V-0.000244141Z" fill="#40BBFF"/>
<path d="M65.3583 114.701H59.9412V120.118H65.3583V114.701Z" fill="#FFCCE4"/>
<path d="M65.3583 92.7966H59.9412V98.2137H65.3583V92.7966Z" fill="#FFCCE4"/>
<path d="M65.3583 -0.000244141H59.9412V5.41685H65.3583V-0.000244141Z" fill="#40BBFF"/>
<path d="M59.941 114.701H54.5239V120.118H59.941V114.701Z" fill="#FFCCE4"/>
<path d="M59.941 -0.000244141H54.5239V5.41685H59.941V-0.000244141Z" fill="#69EDFF"/>
<path d="M54.5238 114.701H49.1067V120.118H54.5238V114.701Z" fill="#FFCCE4"/>
<path d="M54.5238 -0.000244141H49.1067V5.41685H54.5238V-0.000244141Z" fill="#69EDFF"/>
<path d="M48.9894 109.166H43.5723V114.583H48.9894V109.166Z" fill="#FFCCE4"/>
<path d="M48.9894 27.3208H43.5723V32.7379H48.9894V27.3208Z" fill="#FFCCE4"/>
<path d="M48.9894 5.4165H43.5723V10.8336H48.9894V5.4165Z" fill="#69EDFF"/>
<path d="M43.5721 109.166H38.155V114.583H43.5721V109.166Z" fill="#FFCCE4"/>
<path d="M43.5721 27.3208H38.155V32.7379H43.5721V27.3208Z" fill="#F1F4CE"/>
<path d="M43.5721 5.4165H38.155V10.8336H43.5721V5.4165Z" fill="#BBE4FF"/>
<path d="M38.1549 109.166H32.7378V114.583H38.1549V109.166Z" fill="#FFCCE4"/>
<path d="M38.1549 32.7378H32.7378V38.1549H38.1549V32.7378Z" fill="#F1F4CE"/>
<path d="M38.1549 5.4165H32.7378V10.8336H38.1549V5.4165Z" fill="#BBE4FF"/>
<path d="M32.6204 103.748H27.2034V109.165H32.6204V103.748Z" fill="#FFD6C2"/>
<path d="M32.6204 38.1545H27.2034V43.5716H32.6204V38.1545Z" fill="#BBE4FF"/>
<path d="M32.6204 10.9512H27.2034V16.3683H32.6204V10.9512Z" fill="#CDF7F0"/>
<path d="M27.2032 103.748H21.7861V109.165H27.2032V103.748Z" fill="#FFD6C2"/>
<path d="M27.2032 43.6899H21.7861V49.107H27.2032V43.6899Z" fill="#BBE4FF"/>
<path d="M27.2032 10.9512H21.7861V16.3683H27.2032V10.9512Z" fill="#F1F4CE"/>
<path d="M21.786 98.2139H16.3689V103.631H21.786V98.2139Z" fill="#FFD6C2"/>
<path d="M21.786 16.3684H16.3689V21.7855H21.786V16.3684Z" fill="#F1F4CE"/>
<path d="M16.2509 92.7966H10.8339V98.2137H16.2509V92.7966Z" fill="#FFD6C2"/>
<path d="M16.2509 21.7859H10.8339V27.203H16.2509V21.7859Z" fill="#CDF7F0"/>
<path d="M10.8343 87.3804H5.41724V92.7975H10.8343V87.3804Z" fill="#F1F4CE"/>
<path d="M10.8343 81.845H5.41724V87.2621H10.8343V81.845Z" fill="#F1F4CE"/>
<path d="M10.8343 32.7378H5.41724V38.1549H10.8343V32.7378Z" fill="#BBE4FF"/>
<path d="M10.8343 27.3208H5.41724V32.7379H10.8343V27.3208Z" fill="#CDF7F0"/>
<path d="M5.41707 76.4275H0V81.8446H5.41707V76.4275Z" fill="#F1F4CE"/>
<path d="M5.41707 71.01H0V76.4271H5.41707V71.01Z" fill="#F1F4CE"/>
<path d="M5.41707 65.4761H0V70.8931H5.41707V65.4761Z" fill="#40BBFF"/>
<path d="M5.41707 60.0588H0V65.4759H5.41707V60.0588Z" fill="#40BBFF"/>
<path d="M5.41707 54.6414H0V60.0585H5.41707V54.6414Z" fill="#69EDFF"/>
<path d="M5.41707 49.1069H0V54.524H5.41707V49.1069Z" fill="#69EDFF"/>
<path d="M5.41707 43.6899H0V49.107H5.41707V43.6899Z" fill="#69EDFF"/>
<path d="M5.41707 38.1545H0V43.5716H5.41707V38.1545Z" fill="#BBE4FF"/>
</g>
</svg>
